<mxfile host="app.diagrams.net" agent="Mozilla/5.0 (Windows NT 10.0; Win64; x64) AppleWebKit/537.36 (KHTML, like Gecko) Chrome/127.0.0.0 Safari/537.36 Edg/127.0.0.0" version="24.7.8">
  <diagram name="Page-1" id="UXfhY4gnOSXAuW9OO98P">
    <mxGraphModel dx="786" dy="465" grid="1" gridSize="10" guides="1" tooltips="1" connect="1" arrows="1" fold="1" page="1" pageScale="1" pageWidth="850" pageHeight="1100" math="0" shadow="0">
      <root>
        <mxCell id="0" />
        <mxCell id="1" parent="0" />
        <mxCell id="sUrLKCfR_WubupIzURyy-1" value="Class HandDeck" style="rounded=1;whiteSpace=wrap;html=1;" vertex="1" parent="1">
          <mxGeometry x="240" y="180" width="120" height="60" as="geometry" />
        </mxCell>
        <mxCell id="sUrLKCfR_WubupIzURyy-2" value="Class Visualize" style="rounded=1;whiteSpace=wrap;html=1;" vertex="1" parent="1">
          <mxGeometry x="420" y="180" width="120" height="60" as="geometry" />
        </mxCell>
        <mxCell id="sUrLKCfR_WubupIzURyy-3" value="Class GameController" style="rounded=1;whiteSpace=wrap;html=1;" vertex="1" parent="1">
          <mxGeometry x="330" y="280" width="120" height="60" as="geometry" />
        </mxCell>
        <mxCell id="sUrLKCfR_WubupIzURyy-4" value="" style="endArrow=classic;startArrow=classic;html=1;rounded=0;entryX=0.25;entryY=1;entryDx=0;entryDy=0;exitX=0.75;exitY=0;exitDx=0;exitDy=0;" edge="1" parent="1" source="sUrLKCfR_WubupIzURyy-3" target="sUrLKCfR_WubupIzURyy-2">
          <mxGeometry width="50" height="50" relative="1" as="geometry">
            <mxPoint x="380" y="270" as="sourcePoint" />
            <mxPoint x="430" y="220" as="targetPoint" />
          </mxGeometry>
        </mxCell>
        <mxCell id="sUrLKCfR_WubupIzURyy-5" value="" style="endArrow=classic;startArrow=classic;html=1;rounded=0;entryX=0.75;entryY=1;entryDx=0;entryDy=0;exitX=0.25;exitY=0;exitDx=0;exitDy=0;" edge="1" parent="1" source="sUrLKCfR_WubupIzURyy-3" target="sUrLKCfR_WubupIzURyy-1">
          <mxGeometry width="50" height="50" relative="1" as="geometry">
            <mxPoint x="380" y="270" as="sourcePoint" />
            <mxPoint x="430" y="220" as="targetPoint" />
          </mxGeometry>
        </mxCell>
      </root>
    </mxGraphModel>
  </diagram>
</mxfile>
